<svg width="128" height="128" viewBox="0 0 128 128" fill="none" xmlns="http://www.w3.org/2000/svg">
<rect width="128" height="128" rx="9" fill="white"/>
<path d="M43.79 87.398C39.902 87.398 36.158 86.894 32.558 85.886C29.006 84.83 26.054 83.366 23.702 81.494L27.302 73.43C32.246 76.886 37.766 78.614 43.862 78.614C47.126 78.614 49.622 78.11 51.35 77.102C53.126 76.046 54.014 74.582 54.014 72.71C54.014 71.078 53.198 69.806 51.566 68.894C49.982 67.934 47.174 67.022 43.142 66.158C38.63 65.246 35.03 64.142 32.342 62.846C29.702 61.502 27.758 59.894 26.51 58.022C25.31 56.102 24.71 53.726 24.71 50.894C24.71 47.822 25.55 45.062 27.23 42.614C28.958 40.166 31.358 38.27 34.43 36.926C37.502 35.534 41.054 34.838 45.086 34.838C48.734 34.838 52.238 35.366 55.598 36.422C58.958 37.478 61.646 38.918 63.662 40.742L60.062 48.806C55.55 45.35 50.582 43.622 45.158 43.622C42.278 43.622 39.974 44.198 38.246 45.35C36.518 46.502 35.654 48.062 35.654 50.03C35.654 51.182 35.966 52.142 36.59 52.91C37.262 53.678 38.366 54.374 39.902 54.998C41.438 55.574 43.622 56.15 46.454 56.726C53.03 58.166 57.758 60.038 60.638 62.342C63.566 64.646 65.03 67.79 65.03 71.774C65.03 76.574 63.158 80.39 59.414 83.222C55.67 86.006 50.462 87.398 43.79 87.398ZM107.759 50.246L90.9112 88.694C88.8472 93.35 86.2312 96.758 83.0632 98.918C79.9432 101.126 76.1032 102.542 71.5432 103.166L69.0232 94.814C72.3832 94.094 74.9032 93.182 76.5832 92.078C78.3112 90.974 79.6552 89.366 80.6152 87.254L81.6952 84.878L66.6472 50.246H78.0232L87.3832 73.934L97.0312 50.246H107.759Z" fill="#333333"/>
</svg>
